<svg id="visual" viewBox="0 0 1200 600" width="1200" height="600" xmlns="http://www.w3.org/2000/svg" xmlns:xlink="http://www.w3.org/1999/xlink" version="1.1"><path d="M0 440L20 452.5C40 465 80 490 120 504.8C160 519.7 200 524.3 240 531.7C280 539 320 549 360 555.7C400 562.3 440 565.7 480 550.5C520 535.3 560 501.7 600 495.2C640 488.7 680 509.3 720 491.8C760 474.3 800 418.7 840 414.7C880 410.7 920 458.3 960 462C1000 465.7 1040 425.3 1080 406.2C1120 387 1160 389 1180 390L1200 391L1200 601L1180 601C1160 601 1120 601 1080 601C1040 601 1000 601 960 601C920 601 880 601 840 601C800 601 760 601 720 601C680 601 640 601 600 601C560 601 520 601 480 601C440 601 400 601 360 601C320 601 280 601 240 601C200 601 160 601 120 601C80 601 40 601 20 601L0 601Z" fill="#6e3abc"></path><path d="M0 456L20 477.7C40 499.3 80 542.7 120 566.5C160 590.3 200 594.7 240 582.7C280 570.7 320 542.3 360 520.2C400 498 440 482 480 489.5C520 497 560 528 600 547.7C640 567.3 680 575.7 720 564.2C760 552.7 800 521.3 840 517.7C880 514 920 538 960 532C1000 526 1040 490 1080 489.5C1120 489 1160 524 1180 541.5L1200 559L1200 601L1180 601C1160 601 1120 601 1080 601C1040 601 1000 601 960 601C920 601 880 601 840 601C800 601 760 601 720 601C680 601 640 601 600 601C560 601 520 601 480 601C440 601 400 601 360 601C320 601 280 601 240 601C200 601 160 601 120 601C80 601 40 601 20 601L0 601Z" fill="#8edb26"></path></svg>